<svg width="258" height="155" viewBox="0 0 258 155" fill="none" xmlns="http://www.w3.org/2000/svg">
<path d="M10.5653 -12.5825C10.5653 -12.5825 8.98373 24.6229 20.8977 33.3298C32.8469 42.0366 28.8404 61.024 52.7388 62.6324C76.6371 64.2409 82.19 68.1923 98.8836 68.1923C115.577 68.1923 125.137 86.2354 134.696 91.8652C144.255 97.495 149.035 110.957 147.418 127.602C145.802 144.246 145.837 153.723 154.588 153.723C163.339 153.723 172.09 152.149 187.202 153.723C202.314 155.296 218.235 154.527 231.765 141.064C245.296 127.602 238.127 116.517 241.325 102.251C244.488 87.9838 240.516 70.5701 253.274 65.0452C265.996 59.4854 273.166 53.9605 282.725 56.3383C292.284 58.7161 311.368 68.9965 325.707 58.7161C340.046 48.4357 360.711 46.0579 360.711 33.3647C360.711 20.6715 374.242 4.06201 370.27 -12.5475C366.299 -29.192 364.717 -37.8989 366.299 -52.9349C367.88 -67.9709 365.491 -94.0915 361.519 -100.456C357.548 -106.785 358.321 -130.528 353.577 -144.794C348.797 -159.061 352.768 -170.146 339.238 -171.719C325.707 -173.293 275.591 -188.364 252.501 -188.364C229.411 -188.364 202.244 -184.412 190.752 -188.364C179.294 -192.315 151.425 -193.889 137.894 -193.889C124.363 -193.889 98.9187 -192.315 80.6084 -193.889C62.2981 -195.462 29.6839 -201.826 21.7061 -189.937C13.7634 -178.048 15.2043 -169.341 10.495 -156.683C5.78557 -144.025 -1.38392 -137.696 0.232735 -125.003C1.81424 -112.345 8.21055 -105.211 8.98373 -91.7487C9.79206 -78.2863 12.9551 -76.7127 13.7634 -60.8725C14.5717 -45.0322 10.3895 -26.1498 10.5653 -12.5825Z" fill="#FF3748"/>
</svg>
