<svg width="300" height="118" viewBox="0 0 300 118" fill="none" xmlns="http://www.w3.org/2000/svg">
<path d="M119.311 14.5898C131.311 13.7806 167.617 -10.2085 180.5 5.08979C188.5 14.5894 217.313 5.58978 241.312 5.08979C265.312 4.58984 290.812 57.0898 298.812 75.0898C303.235 85.0413 281.523 91.6294 259.195 96.6308L223 110.321L216.5 107.586L201 115.586C194.5 113.831 179.9 111.375 173.5 115.586C167.1 119.797 156.167 117.341 151.5 115.586L133 110.321L127 115.586H111L104 110.321L99.4999 112.086L91.4999 113.586L76.4999 115.586L47.9999 110.321L42.4999 107.586L24.4999 97.5859L15.1171 85.79C10.1698 81.6379 6.0448 77.8232 3.31141 75.0898C-7.18855 64.5898 8.81152 30.5899 29.8114 22.5898C50.8114 14.5898 65.8115 18.5898 119.311 14.5898Z" fill="white"/>
</svg>
