<svg width="100%" height="100%" viewBox="0 0 149 204" fill="none" xmlns="http://www.w3.org/2000/svg">
<path d="M35.1204 44.8887C45.3799 27.045 61.4735 15.0351 75.8702 4.13894C90.2667 -6.75684 99.8871 6.37571 106.769 14.6627C107.85 15.965 108.673 17.166 109.322 18.337L113.758 22.773L114.818 33.7332L116.94 35.8545L124.011 40.0971L118.595 48.2199C125.84 64.1288 133.76 59.3436 137.712 65.9811C141.85 72.9287 145.737 89.462 148.695 102.256C151.653 115.05 91.9935 174.126 61.4436 197.675C30.9351 221.192 -10.4044 172.919 2.38774 150.006L1.32777 138.031L14.7628 124.596L13.3486 111.868L3.80264 108.686L5.57041 93.4837L15.1164 83.9377L18.2983 68.7349L22.8945 64.1387L30.2825 54.6391C31.8169 51.1177 33.439 47.8131 35.1204 44.8887Z" fill="white"/>
</svg>
