<svg width="100%" height="100%" viewBox="0 0 249 262" fill="none" xmlns="http://www.w3.org/2000/svg">
<path d="M64.6008 152.927L79.5875 152.171L88.3334 143.425L103.639 128.12L152.66 91.4317L160.613 40.787L162.347 16.2836L187.169 1.2596e-05L206.721 10.8065L228.267 3.49112L248.768 15.2463L232.707 45.5382L235.635 61.5847L235.131 71.5758L248.205 102.142L203.142 113.052L199.503 124.281L212.785 137.563L203.164 147.183L198.791 151.556L181.085 174.955L131.011 219.337L91.217 259.131L75.5707 254.854L51.9048 254.802L35.7916 261.428L13.282 245.041L-1.69233e-05 231.759L14.4307 217.328L36.7327 195.026L43.1734 174.354L64.6008 152.927Z" fill="white"/>
</svg>
