<svg width="100%" height="100%" viewBox="0 0 254 266" fill="none" xmlns="http://www.w3.org/2000/svg">
<path d="M30.149 124.078L32.7287 121.498C32.4058 117.736 38.4674 103.504 65.2966 76.6751C69.1662 72.8055 74.3255 63.7762 83.3548 58.6169C86.5797 60.552 94.642 64.7447 99.8018 64.745C104.962 64.7453 111.088 53.4586 114.635 49.9115L117.215 47.3318C117.86 44.9669 120.181 39.2053 124.309 35.0778L132.048 27.3386C136.563 27.3388 146.173 26.7588 148.495 24.4371L160.748 12.1833L171.712 1.21945C175.259 -2.3277 182.354 2.83242 183.967 4.44493L186.547 7.02493L215.248 9.9288L248.787 22.185C249.862 24.3349 252.27 29.9248 253.303 35.0846C254.335 40.2444 250.509 52.9285 248.467 58.6256L243.307 63.7851L208.481 98.6115L185.908 121.184C183.328 123.764 186.553 132.149 186.231 136.986C185.973 140.856 183.437 145.37 181.826 156.442C171.507 171.275 172.238 184.39 143.344 197.288C132.702 201.48 134.637 202.125 100.455 230.502L84.6546 246.303L76.2705 254.687C73.0452 257.912 71.1117 260.491 67.242 263.715C63.3724 266.94 58.535 264.682 50.4725 256.62C42.41 248.557 43.7 249.847 23.0594 219.533C14.3533 206.746 10.8113 203.254 9.52903 202.862C7.78352 202.328 10.2258 207.538 9.52903 202.862C9.52417 202.829 9.51915 202.796 9.51397 202.763C8.2236 194.378 9.19165 201.795 7.57897 196.958C6.28883 193.088 5.10623 189.971 4.67619 188.896C3.92353 185.133 2.03118 176.577 0.483037 172.449C-1.45214 167.289 2.0951 165.677 17.2506 142.136C22.1519 133.107 22.0875 135.579 21.4427 137.944C22.625 135.042 26.0214 128.205 30.149 124.078Z" fill="white"/>
</svg>
