<svg width="100%" height="100%" viewBox="0 0 235 225" fill="none" xmlns="http://www.w3.org/2000/svg">
<path d="M3.10587 168.996C12.2983 148.49 25.7333 140.712 60.7351 100.053C68.6475 90.9964 77.3573 48.361 97.2843 50.0691C109.659 51.1298 123.668 24.3922 140.285 7.06812C156.902 -10.256 212.057 8.83589 230.441 15.907C248.826 22.978 198.975 82.7286 195.086 95.81C191.197 108.892 156.549 142.126 131.8 159.096C107.051 176.067 104.576 194.098 90.7877 207.886C83.7682 214.906 69.7848 219.177 55.788 221.678C42.2905 224.091 28.7804 224.858 21.4906 224.858C6.64141 224.858 -6.08652 189.502 3.10587 168.996Z" fill="white"/>
</svg>
