<svg xmlns="http://www.w3.org/2000/svg" version="1.1" xmlns:xlink="http://www.w3.org/1999/xlink" width="55" height="53"><svg width="55" height="53" viewBox="0 0 55 53" fill="none" xmlns="http://www.w3.org/2000/svg">
<rect width="54.6028" height="52.9982" fill="white"></rect>
<path d="M15.1115 43.9811C15.1115 43.9811 16.8295 43.8209 17.3209 44.5446C17.8122 45.2682 21.6582 45.0927 22.5564 44.2551C23.4576 43.4176 23.8645 41.5669 23.8645 40.6801C23.8645 39.7933 24.3558 38.8295 24.2744 37.7826C24.193 36.7356 24.6844 36.012 25.3384 35.5286C25.9924 35.0451 26.8937 33.9982 27.2192 33.1945C27.5478 32.3909 28.3645 31.504 29.5913 30.7804C30.818 30.0568 30.9839 29.5734 32.7833 28.7666C34.5827 27.9629 35.8908 27.4795 37.5274 25.5457C39.1641 23.6151 39.8995 22.7282 39.4927 21.0377C39.0828 19.3472 38.3473 17.6567 37.7747 16.3696C37.202 15.0825 36.3007 12.7454 34.5827 11.7015C32.8646 10.6546 30.6553 9.36747 29.4285 9.20427C28.2018 9.04415 27.6291 8.88095 26.3179 8.40059C25.0098 7.91715 24.3526 8.16041 22.6346 8.40059C20.9166 8.64385 19.2799 8.40675 18.0531 8.12346C16.8295 7.83401 15.2742 7.91407 15.6028 9.92481C15.9314 11.9386 14.6202 12.9825 15.1115 14.1926C15.6028 15.4028 15.4401 16.9301 15.8469 18.1371C16.2569 19.3442 16.4196 20.1509 16.2569 21.0347C16.0941 21.9215 16.1755 22.1617 16.1755 23.612C16.1755 25.0623 16.7482 25.4626 16.0941 27.1531C15.4401 28.8436 15.1115 30.6942 15.5215 32.2246C15.9314 33.7549 16.0128 35.0421 15.9314 36.1691C15.85 37.2961 15.6028 37.6194 15.85 38.8264C16.0941 40.0335 16.1786 40.7571 15.9314 41.4838C15.6842 42.2074 15.1146 43.9811 15.1146 43.9811H15.1115Z" fill="black"></path>
</svg><style>@media (prefers-color-scheme: light) { :root { filter: none; } }
@media (prefers-color-scheme: dark) { :root { filter: none; } }
</style></svg>