<?xml version="1.0" encoding="UTF-8"?>
<svg id="Layer_2" data-name="Layer 2" xmlns="http://www.w3.org/2000/svg" viewBox="0 0 318.63 299.29">
  <defs>
    <style>
      .cls-1 {
        fill: #231f20;
      }
    </style>
  </defs>
  <g id="Calque_1" data-name="Calque 1">
    <path class="cls-1" d="M12.78,0v200.34h294.95V0H12.78ZM302.06,194.56H18.46V5.49h283.6v189.07Z"/>
    <g>
      <polygon class="cls-1" points="154.21 46.69 160.2 42.32 166.18 46.69 163.91 39.62 169.98 35.26 162.49 35.26 160.2 28.11 157.91 35.27 150.42 35.26 156.49 39.62 154.21 46.69"/>
      <polygon class="cls-1" points="123.25 55.01 129.23 50.64 135.21 55.01 132.94 47.95 139.01 43.58 131.52 43.58 129.23 36.42 126.93 43.59 119.44 43.58 125.52 47.95 123.25 55.01"/>
      <polygon class="cls-1" points="106.57 59.13 104.28 66.3 96.79 66.29 102.86 70.66 100.58 77.72 106.57 73.35 112.55 77.72 110.28 70.66 116.35 66.29 108.86 66.29 106.57 59.13"/>
      <polygon class="cls-1" points="98.26 104.28 104.24 108.65 101.96 101.59 108.04 97.22 100.55 97.22 98.26 90.06 95.96 97.23 88.47 97.22 94.55 101.59 92.27 108.65 98.26 104.28"/>
      <polygon class="cls-1" points="108.86 128.24 106.57 121.09 104.28 128.25 96.79 128.24 102.86 132.61 100.58 139.67 106.57 135.3 112.55 139.67 110.28 132.61 116.35 128.24 108.86 128.24"/>
      <polygon class="cls-1" points="131.57 150.95 129.27 143.8 126.98 150.95 119.49 150.95 125.57 155.31 123.29 162.38 129.28 158.01 135.26 162.38 132.98 155.31 139.06 150.95 131.57 150.95"/>
      <polygon class="cls-1" points="162.5 159.17 160.2 152.02 157.91 159.18 150.42 159.17 156.5 163.54 154.22 170.6 160.21 166.23 166.19 170.6 163.91 163.54 169.99 159.17 162.5 159.17"/>
      <polygon class="cls-1" points="193.42 150.95 191.14 143.8 188.84 150.95 181.35 150.95 187.42 155.31 185.15 162.38 191.14 158.01 197.12 162.38 194.84 155.31 200.92 150.95 193.42 150.95"/>
      <polygon class="cls-1" points="216.14 128.24 213.84 121.09 211.54 128.25 204.06 128.24 210.14 132.61 207.85 139.67 213.84 135.3 219.82 139.67 217.54 132.61 223.62 128.24 216.14 128.24"/>
      <polygon class="cls-1" points="231.85 97.13 224.35 97.13 222.06 89.98 219.77 97.14 212.28 97.13 218.35 101.5 216.08 108.56 222.06 104.19 228.04 108.56 225.77 101.5 231.85 97.13"/>
      <polygon class="cls-1" points="207.85 77.62 213.84 73.26 219.82 77.62 217.54 70.56 223.62 66.2 216.14 66.2 213.84 59.05 211.54 66.21 204.06 66.2 210.14 70.56 207.85 77.62"/>
      <polygon class="cls-1" points="191.22 36.43 188.93 43.59 181.44 43.58 187.51 47.95 185.24 55.02 191.23 50.64 197.21 55.02 194.93 47.95 201.01 43.58 193.51 43.58 191.22 36.43"/>
    </g>
    <g>
      <path class="cls-1" d="M64.46,243.11l4.74,1.5c-.73,2.64-1.94,4.61-3.63,5.89-1.69,1.28-3.84,1.92-6.44,1.92-3.22,0-5.86-1.1-7.93-3.3-2.07-2.2-3.11-5.2-3.11-9.01,0-4.03,1.04-7.16,3.12-9.39,2.08-2.23,4.82-3.34,8.21-3.34,2.96,0,5.37.88,7.22,2.63,1.1,1.04,1.93,2.52,2.48,4.46l-4.84,1.16c-.29-1.25-.88-2.25-1.79-2.97-.91-.73-2.01-1.09-3.31-1.09-1.8,0-3.25.64-4.37,1.93-1.12,1.29-1.68,3.38-1.68,6.26,0,3.06.55,5.24,1.65,6.54,1.1,1.3,2.53,1.95,4.3,1.95,1.3,0,2.42-.41,3.35-1.24s1.61-2.12,2.02-3.9Z"/>
      <path class="cls-1" d="M72.29,243c0-1.54.38-3.03,1.14-4.48.76-1.44,1.84-2.54,3.23-3.3,1.39-.76,2.95-1.14,4.67-1.14,2.65,0,4.83.86,6.53,2.59s2.54,3.9,2.54,6.53-.86,4.85-2.57,6.6c-1.71,1.75-3.87,2.62-6.47,2.62-1.61,0-3.14-.36-4.6-1.09-1.46-.73-2.57-1.79-3.33-3.2s-1.14-3.11-1.14-5.13ZM77.04,243.24c0,1.74.41,3.07,1.24,4,.83.92,1.84,1.39,3.06,1.39s2.23-.46,3.05-1.39c.82-.92,1.23-2.27,1.23-4.03s-.41-3.04-1.23-3.96c-.82-.92-1.84-1.39-3.05-1.39s-2.23.46-3.06,1.39c-.83.92-1.24,2.26-1.24,4Z"/>
      <path class="cls-1" d="M93.5,245.56v-4.64h9.12v4.64h-9.12Z"/>
      <path class="cls-1" d="M103.26,234.47h2.58v-1.32c0-1.48.16-2.58.47-3.3.31-.73.89-1.32,1.73-1.78s1.91-.69,3.2-.69,2.62.2,3.88.59l-.63,3.24c-.74-.18-1.45-.26-2.13-.26s-1.15.16-1.45.47c-.29.31-.44.92-.44,1.81v1.24h3.47v3.65h-3.47v13.89h-4.64v-13.89h-2.58v-3.65Z"/>
      <path class="cls-1" d="M128.11,252.02v-2.63c-.64.94-1.48,1.67-2.52,2.21-1.04.54-2.14.81-3.3.81s-2.24-.26-3.17-.78c-.94-.52-1.61-1.24-2.03-2.18s-.63-2.23-.63-3.88v-11.1h4.64v8.06c0,2.47.08,3.98.26,4.53.17.56.48,1,.93,1.32.45.32,1.02.49,1.72.49.79,0,1.5-.22,2.13-.65.63-.44,1.06-.98,1.29-1.62.23-.64.35-2.22.35-4.73v-7.4h4.64v17.54h-4.31Z"/>
      <path class="cls-1" d="M153.19,252.02h-4.64v-8.95c0-1.89-.1-3.12-.3-3.68-.2-.56-.52-.99-.97-1.3-.45-.31-.98-.46-1.61-.46-.8,0-1.53.22-2.16.66-.64.44-1.08,1.02-1.31,1.75s-.36,2.07-.36,4.03v7.95h-4.64v-17.54h4.31v2.58c1.53-1.98,3.46-2.97,5.78-2.97,1.02,0,1.96.18,2.81.55s1.49.84,1.92,1.41c.44.57.74,1.22.91,1.95.17.73.26,1.77.26,3.12v10.9Z"/>
      <path class="cls-1" d="M173.99,252.02h-4.31v-2.58c-.71,1-1.56,1.75-2.54,2.24-.97.49-1.96.74-2.95.74-2.02,0-3.74-.81-5.18-2.44-1.44-1.62-2.16-3.89-2.16-6.8s.7-5.23,2.1-6.78c1.4-1.55,3.17-2.32,5.3-2.32,1.96,0,3.66.82,5.09,2.45v-8.72h4.64v24.22ZM161.6,242.86c0,1.87.26,3.23.78,4.06.75,1.21,1.79,1.82,3.14,1.82,1.07,0,1.98-.45,2.73-1.36.75-.91,1.12-2.27,1.12-4.07,0-2.02-.36-3.47-1.09-4.35-.73-.89-1.66-1.33-2.79-1.33s-2.02.44-2.77,1.31c-.74.88-1.12,2.18-1.12,3.92Z"/>
      <path class="cls-1" d="M188.72,246.43l4.63.78c-.59,1.7-1.53,2.99-2.82,3.87-1.28.89-2.89,1.33-4.82,1.33-3.05,0-5.31-1-6.77-2.99-1.16-1.6-1.74-3.61-1.74-6.05,0-2.91.76-5.18,2.28-6.83s3.44-2.47,5.77-2.47c2.61,0,4.67.86,6.18,2.59,1.51,1.72,2.23,4.36,2.17,7.92h-11.63c.03,1.38.41,2.45,1.12,3.21.71.77,1.61,1.15,2.68,1.15.73,0,1.34-.2,1.83-.59s.87-1.04,1.12-1.92ZM188.99,241.74c-.03-1.34-.38-2.37-1.04-3.07-.66-.7-1.46-1.05-2.41-1.05-1.01,0-1.85.37-2.51,1.11-.66.74-.99,1.74-.97,3.01h6.94Z"/>
      <path class="cls-1" d="M213.47,252.02h-4.31v-2.58c-.71,1-1.56,1.75-2.54,2.24-.97.49-1.96.74-2.95.74-2.02,0-3.74-.81-5.18-2.44-1.44-1.62-2.16-3.89-2.16-6.8s.7-5.23,2.1-6.78c1.4-1.55,3.17-2.32,5.3-2.32,1.96,0,3.66.82,5.09,2.45v-8.72h4.64v24.22ZM201.08,242.86c0,1.87.26,3.23.78,4.06.75,1.21,1.79,1.82,3.14,1.82,1.07,0,1.98-.45,2.73-1.36.75-.91,1.12-2.27,1.12-4.07,0-2.02-.36-3.47-1.09-4.35-.73-.89-1.66-1.33-2.79-1.33s-2.02.44-2.77,1.31c-.74.88-1.12,2.18-1.12,3.92Z"/>
      <path class="cls-1" d="M227.25,252.02v-24.22h4.64v8.72c1.43-1.63,3.13-2.45,5.09-2.45,2.14,0,3.9.77,5.3,2.32,1.4,1.55,2.1,3.77,2.1,6.67s-.71,5.3-2.14,6.92-3.16,2.43-5.2,2.43c-1,0-1.99-.25-2.96-.75s-1.81-1.24-2.52-2.22v2.58h-4.31ZM231.86,242.86c0,1.82.29,3.16.86,4.03.8,1.23,1.87,1.85,3.21,1.85,1.02,0,1.9-.44,2.62-1.31.72-.88,1.08-2.26,1.08-4.14,0-2-.36-3.45-1.09-4.34-.73-.89-1.66-1.33-2.79-1.33s-2.04.43-2.78,1.3c-.74.87-1.11,2.18-1.11,3.94Z"/>
      <path class="cls-1" d="M245.92,234.47h4.94l4.2,12.46,4.1-12.46h4.81l-6.2,16.88-1.11,3.06c-.41,1.02-.8,1.81-1.17,2.35-.37.54-.79.98-1.27,1.31-.48.34-1.07.6-1.77.79-.7.19-1.49.28-2.37.28s-1.77-.09-2.63-.28l-.41-3.63c.73.14,1.38.21,1.97.21,1.08,0,1.88-.32,2.4-.95s.91-1.44,1.19-2.42l-6.67-17.59Z"/>
      <path class="cls-1" d="M9.96,275.07v3.7h-3.17v7.07c0,1.43.03,2.27.09,2.5.06.24.2.43.41.59.21.16.48.23.78.23.43,0,1.05-.15,1.87-.45l.4,3.6c-1.08.46-2.3.69-3.67.69-.84,0-1.59-.14-2.26-.42-.67-.28-1.17-.64-1.48-1.09-.31-.45-.53-1.05-.65-1.81-.1-.54-.15-1.63-.15-3.27v-7.65H0v-3.7h2.13v-3.49l4.66-2.71v6.2h3.17Z"/>
      <path class="cls-1" d="M17.81,268.4v8.9c1.5-1.75,3.29-2.63,5.37-2.63,1.07,0,2.03.2,2.89.59.86.4,1.51.9,1.94,1.52.44.62.73,1.3.89,2.05s.24,1.91.24,3.49v10.29h-4.64v-9.27c0-1.84-.09-3.01-.26-3.5-.18-.5-.49-.89-.93-1.18-.45-.29-1.01-.44-1.68-.44-.77,0-1.46.19-2.06.56-.61.38-1.05.94-1.33,1.69-.28.75-.42,1.87-.42,3.35v8.79h-4.64v-24.22h4.64Z"/>
      <path class="cls-1" d="M44.01,287.03l4.63.78c-.59,1.7-1.53,2.99-2.82,3.87-1.28.89-2.89,1.33-4.82,1.33-3.05,0-5.31-1-6.77-2.99-1.16-1.6-1.73-3.61-1.73-6.05,0-2.91.76-5.18,2.28-6.83,1.52-1.65,3.44-2.47,5.77-2.47,2.61,0,4.67.86,6.18,2.59s2.23,4.36,2.16,7.92h-11.63c.03,1.38.41,2.45,1.12,3.21s1.61,1.15,2.68,1.15c.73,0,1.34-.2,1.83-.59s.87-1.04,1.12-1.92ZM44.27,282.34c-.03-1.34-.38-2.37-1.04-3.07-.66-.7-1.46-1.05-2.41-1.05-1.01,0-1.85.37-2.51,1.11-.66.74-.99,1.74-.97,3.01h6.94Z"/>
      <path class="cls-1" d="M62.1,292.62v-24.22h17.96v4.1h-13.07v5.37h12.16v4.08h-12.16v6.59h13.53v4.08h-18.42Z"/>
      <path class="cls-1" d="M96.18,292.62v-2.63c-.64.94-1.48,1.67-2.52,2.21-1.04.54-2.14.81-3.3.81s-2.24-.26-3.17-.78c-.94-.52-1.61-1.24-2.03-2.18s-.63-2.23-.63-3.88v-11.1h4.64v8.06c0,2.47.08,3.98.26,4.53.17.56.48,1,.93,1.32.45.32,1.02.49,1.72.49.79,0,1.5-.22,2.13-.65.63-.44,1.06-.98,1.29-1.62.23-.64.35-2.22.35-4.73v-7.4h4.64v17.54h-4.31Z"/>
      <path class="cls-1" d="M109.75,292.62h-4.64v-17.54h4.31v2.5c.74-1.18,1.4-1.96,1.99-2.33.59-.37,1.26-.56,2.01-.56,1.06,0,2.08.29,3.06.88l-1.44,4.05c-.78-.51-1.51-.76-2.18-.76s-1.2.18-1.65.54c-.45.36-.81,1-1.07,1.94-.26.94-.39,2.9-.39,5.88v5.42Z"/>
      <path class="cls-1" d="M117.4,283.6c0-1.54.38-3.03,1.14-4.48.76-1.44,1.84-2.54,3.23-3.3,1.39-.76,2.95-1.14,4.67-1.14,2.65,0,4.83.86,6.53,2.59s2.54,3.9,2.54,6.53-.86,4.85-2.57,6.6c-1.71,1.75-3.87,2.62-6.47,2.62-1.61,0-3.14-.36-4.6-1.09-1.46-.73-2.57-1.79-3.33-3.2s-1.14-3.11-1.14-5.13ZM122.15,283.85c0,1.74.41,3.07,1.24,4,.83.92,1.84,1.39,3.06,1.39s2.23-.46,3.05-1.39c.82-.92,1.23-2.27,1.23-4.03s-.41-3.04-1.23-3.96c-.82-.92-1.84-1.39-3.05-1.39s-2.23.46-3.06,1.39c-.83.92-1.24,2.26-1.24,4Z"/>
      <path class="cls-1" d="M139,275.07h4.33v2.58c.56-.88,1.32-1.6,2.28-2.15.96-.55,2.02-.83,3.19-.83,2.04,0,3.77.8,5.19,2.4,1.42,1.6,2.13,3.82,2.13,6.67s-.72,5.21-2.15,6.83c-1.43,1.62-3.17,2.44-5.2,2.44-.97,0-1.85-.19-2.64-.58s-1.62-1.05-2.49-1.98v8.84h-4.64v-24.22ZM143.6,283.55c0,1.97.39,3.43,1.17,4.37.78.94,1.73,1.41,2.86,1.41s1.98-.43,2.69-1.3c.72-.87,1.07-2.28,1.07-4.25,0-1.84-.37-3.21-1.11-4.1-.74-.89-1.65-1.34-2.74-1.34s-2.08.44-2.82,1.31c-.75.88-1.12,2.17-1.12,3.89Z"/>
      <path class="cls-1" d="M169.96,287.03l4.63.78c-.6,1.7-1.53,2.99-2.82,3.87-1.28.89-2.89,1.33-4.82,1.33-3.05,0-5.31-1-6.77-2.99-1.16-1.6-1.73-3.61-1.73-6.05,0-2.91.76-5.18,2.28-6.83s3.44-2.47,5.77-2.47c2.61,0,4.67.86,6.18,2.59s2.23,4.36,2.17,7.92h-11.63c.03,1.38.41,2.45,1.12,3.21s1.61,1.15,2.68,1.15c.73,0,1.34-.2,1.83-.59.5-.4.87-1.04,1.12-1.92ZM170.23,282.34c-.03-1.34-.38-2.37-1.04-3.07-.66-.7-1.46-1.05-2.41-1.05-1.01,0-1.85.37-2.51,1.11-.66.74-.99,1.74-.97,3.01h6.94Z"/>
      <path class="cls-1" d="M182.09,280.43l-4.21-.76c.47-1.7,1.29-2.95,2.45-3.77s2.88-1.22,5.15-1.22c2.07,0,3.61.25,4.63.74s1.73,1.11,2.14,1.87c.41.75.62,2.14.62,4.16l-.05,5.42c0,1.54.07,2.68.22,3.41s.43,1.52.83,2.35h-4.59c-.12-.31-.27-.77-.45-1.37-.08-.28-.13-.46-.16-.54-.79.77-1.64,1.35-2.54,1.73-.9.39-1.87.58-2.89.58-1.81,0-3.23-.49-4.27-1.47-1.04-.98-1.56-2.22-1.56-3.72,0-.99.24-1.88.71-2.65.47-.78,1.14-1.37,1.99-1.78s2.08-.77,3.69-1.08c2.17-.41,3.67-.79,4.51-1.14v-.46c0-.89-.22-1.53-.66-1.91-.44-.38-1.27-.57-2.49-.57-.83,0-1.47.16-1.93.49-.46.33-.84.9-1.12,1.71ZM188.3,284.19c-.59.2-1.54.44-2.83.71-1.29.28-2.13.54-2.53.81-.61.43-.91.97-.91,1.63s.24,1.21.73,1.69,1.1.71,1.85.71c.84,0,1.64-.27,2.4-.83.56-.42.93-.93,1.11-1.54.12-.4.18-1.15.18-2.26v-.93Z"/>
      <path class="cls-1" d="M213.4,292.62h-4.64v-8.95c0-1.89-.1-3.12-.3-3.68-.2-.56-.52-.99-.97-1.3-.45-.31-.98-.46-1.61-.46-.8,0-1.53.22-2.16.66-.64.44-1.08,1.02-1.31,1.75s-.36,2.07-.36,4.03v7.95h-4.64v-17.54h4.31v2.58c1.53-1.98,3.46-2.97,5.78-2.97,1.02,0,1.96.18,2.81.55.85.37,1.49.84,1.93,1.41.43.57.74,1.22.91,1.95.17.73.26,1.77.26,3.12v10.9Z"/>
      <path class="cls-1" d="M227.51,268.4h4.89v13.12c0,2.08.06,3.43.18,4.05.21.99.71,1.79,1.5,2.39s1.86.9,3.23.9,2.43-.28,3.14-.85c.7-.57,1.13-1.26,1.27-2.09s.21-2.2.21-4.11v-13.4h4.89v12.72c0,2.91-.13,4.96-.4,6.16-.27,1.2-.75,2.21-1.46,3.04-.71.83-1.66,1.48-2.85,1.97s-2.74.74-4.66.74c-2.31,0-4.07-.27-5.26-.8-1.2-.53-2.14-1.23-2.83-2.08s-1.15-1.75-1.37-2.68c-.32-1.39-.48-3.44-.48-6.15v-12.92Z"/>
      <path class="cls-1" d="M267.9,292.62h-4.64v-8.95c0-1.89-.1-3.12-.3-3.68-.2-.56-.52-.99-.97-1.3-.45-.31-.98-.46-1.61-.46-.8,0-1.53.22-2.16.66s-1.08,1.02-1.31,1.75c-.24.73-.36,2.07-.36,4.03v7.95h-4.64v-17.54h4.31v2.58c1.53-1.98,3.46-2.97,5.78-2.97,1.02,0,1.96.18,2.81.55s1.49.84,1.92,1.41c.43.57.74,1.22.91,1.95.17.73.26,1.77.26,3.12v10.9Z"/>
      <path class="cls-1" d="M272.61,272.69v-4.29h4.64v4.29h-4.64ZM272.61,292.62v-17.54h4.64v17.54h-4.64Z"/>
      <path class="cls-1" d="M280.93,283.6c0-1.54.38-3.03,1.14-4.48.76-1.44,1.84-2.54,3.23-3.3,1.39-.76,2.95-1.14,4.67-1.14,2.65,0,4.83.86,6.53,2.59s2.54,3.9,2.54,6.53-.86,4.85-2.57,6.6c-1.71,1.75-3.87,2.62-6.47,2.62-1.61,0-3.14-.36-4.6-1.09-1.46-.73-2.57-1.79-3.33-3.2s-1.14-3.11-1.14-5.13ZM285.69,283.85c0,1.74.41,3.07,1.24,4s1.84,1.39,3.06,1.39,2.23-.46,3.05-1.39c.82-.92,1.23-2.27,1.23-4.03s-.41-3.04-1.23-3.96c-.82-.92-1.84-1.39-3.05-1.39s-2.23.46-3.06,1.39-1.24,2.26-1.24,4Z"/>
      <path class="cls-1" d="M318.63,292.62h-4.64v-8.95c0-1.89-.1-3.12-.3-3.68-.2-.56-.52-.99-.97-1.3-.45-.31-.98-.46-1.61-.46-.8,0-1.53.22-2.16.66-.64.44-1.08,1.02-1.31,1.75s-.36,2.07-.36,4.03v7.95h-4.64v-17.54h4.31v2.58c1.53-1.98,3.46-2.97,5.78-2.97,1.02,0,1.96.18,2.81.55.85.37,1.49.84,1.93,1.41.43.57.74,1.22.91,1.95.17.73.26,1.77.26,3.12v10.9Z"/>
    </g>
  </g>
</svg>