<svg width="71" height="37" viewBox="0 0 71 37" fill="none" xmlns="http://www.w3.org/2000/svg">
<g clip-path="url(#clip0_839_23653)">
<path d="M0.111501 35.9889C0.111501 35.9889 1.82955 35.8288 2.32086 36.5524C2.81218 37.276 6.65822 37.1005 7.55636 36.2629C8.45763 35.4254 8.86445 33.5748 8.86445 32.6879C8.86445 31.8011 9.35577 30.8373 9.27441 29.7904C9.19304 28.7435 9.68436 28.0198 10.3384 27.5364C10.9924 27.053 11.8937 26.006 12.2192 25.2023C12.5478 24.3987 13.3645 23.5118 14.5913 22.7882C15.818 22.0646 15.9839 21.5812 17.7833 20.7744C19.5827 19.9707 20.8908 19.4873 22.5274 17.5535C24.1641 15.6229 24.8995 14.736 24.4927 13.0456C24.0828 11.3551 23.3473 9.66456 22.7747 8.37744C22.202 7.09033 21.3007 4.75319 19.5827 3.70933C17.8646 2.6624 15.6553 1.37528 14.4285 1.21208C13.2018 1.05196 12.6291 0.888762 11.3179 0.408403C10.0098 -0.0750362 9.35264 0.168223 7.6346 0.408403C5.91655 0.651662 4.27987 0.414561 3.05314 0.131272C1.82955 -0.158175 0.27423 -0.0781154 0.602818 1.93262C0.931406 3.94643 -0.379816 4.99029 0.111501 6.20043C0.602818 7.41057 0.440089 8.93786 0.846912 10.1449C1.25686 11.352 1.41959 12.1587 1.25686 13.0425C1.09414 13.9293 1.1755 14.1695 1.1755 15.6198C1.1755 17.0701 1.74818 17.4704 1.09414 19.1609C0.440089 20.8514 0.111501 22.702 0.521453 24.2324C0.931406 25.7628 1.01277 27.0499 0.931406 28.1769C0.850041 29.3039 0.602818 29.6272 0.850041 30.8343C1.09414 32.0413 1.17863 32.7649 0.931406 33.4916C0.684183 34.2152 0.114631 35.9889 0.114631 35.9889H0.111501Z" fill="black"/>
<path d="M29.2779 12.2725C29.2779 12.2725 33.0958 12.0262 32.6827 10.4743C32.2665 8.92233 32.4981 8.43274 32.714 6.88081C32.9299 5.32887 31.2713 4.02328 30.3575 3.86008C29.4438 3.69688 28.5331 2.79775 27.8665 4.34968C27.2031 5.90161 27.7007 5.90161 27.8665 7.3704C28.0324 8.83919 27.6944 12.5158 29.2779 12.2695" fill="black"/>
<path d="M28.1194 23.2983C28.1194 23.2983 28.2509 20.0312 30.1348 20.0312C32.0187 20.0312 32.7854 20.9304 32.7353 22.1559C32.6853 23.3814 32.1877 25.6693 33.1828 26.0758C34.178 26.4853 33.8463 27.7078 34.2625 28.7701C34.6787 29.8324 35.2576 30.4021 35.0104 31.5476C34.7601 32.69 34.5942 33.0995 33.2673 34.1618C31.9405 35.2242 31.1925 34.9778 29.365 34.9778C27.5374 34.9778 26.5422 34.5683 25.8788 34.1618C25.2154 33.7523 25.4626 32.5298 25.8788 31.5476C26.295 30.5684 26.0447 28.6069 27.0398 27.871C28.035 27.135 27.1243 23.9511 28.1194 23.2983Z" fill="black"/>
<path d="M38.9017 20.8023C38.9017 20.8023 38.7609 24.0786 39.8218 24.8453C40.8858 25.612 40.529 27.2841 42.657 27.4257C44.785 27.5674 45.2794 27.9153 46.7659 27.9153C48.2524 27.9153 49.1036 29.5042 49.9548 29.9999C50.806 30.4957 51.2316 31.6812 51.0876 33.1469C50.9437 34.6126 50.9468 35.4471 51.726 35.4471C52.5052 35.4471 53.2845 35.3085 54.6301 35.4471C55.9758 35.5857 57.3934 35.5179 58.5982 34.3324C59.803 33.1469 59.1646 32.1708 59.4494 30.9145C59.731 29.6581 59.3774 28.1247 60.5134 27.6382C61.6462 27.1486 62.2846 26.6621 63.1358 26.8714C63.987 27.0808 65.6863 27.9861 66.9631 27.0808C68.2399 26.1755 70.08 25.9662 70.08 24.8484C70.08 23.7306 71.2848 22.268 70.9312 20.8054C70.5776 19.3397 70.4367 18.5729 70.5776 17.2489C70.7184 15.9248 70.5056 13.6246 70.152 13.0642C69.7983 12.5068 69.8672 10.4161 69.4447 9.15973C69.0191 7.9034 69.3727 6.92729 68.1679 6.78872C66.9631 6.65016 62.5006 5.32301 60.4445 5.32301C58.3885 5.32301 55.9695 5.67096 54.9462 5.32301C53.926 4.97506 51.4444 4.83649 50.2395 4.83649C49.0347 4.83649 46.769 4.97506 45.1386 4.83649C43.5082 4.69793 40.6041 4.13751 39.8937 5.18445C39.1865 6.23138 39.3148 6.99811 38.8954 8.11279C38.4761 9.22747 37.8377 9.78481 37.9817 10.9026C38.1225 12.0173 38.692 12.6454 38.7609 13.8309C38.8329 15.0164 39.1145 15.155 39.1865 16.5499C39.2585 17.9448 38.8861 19.6075 38.9017 20.8023Z" fill="black"/>
</g>
<defs>
<clipPath id="clip0_839_23653">
<rect width="71" height="37" fill="white"/>
</clipPath>
</defs>
</svg>
